<?xml version="1.0" standalone="no"?>
<!DOCTYPE svg PUBLIC "-//W3C//DTD SVG 20010904//EN"
 "http://www.w3.org/TR/2001/REC-SVG-20010904/DTD/svg10.dtd">
<svg version="1.0" xmlns="http://www.w3.org/2000/svg"
 width="849.000000pt" height="849.000000pt" viewBox="0 0 849.000000 849.000000"
 preserveAspectRatio="xMidYMid meet">
<metadata>
Created by potrace 1.11, written by Peter Selinger 2001-2013
</metadata>
<g transform="translate(0.000000,849.000000) scale(0.100000,-0.100000)"
fill="#000000" stroke="none">
<path d="M1037 7913 c-52 -81 -122 -193 -182 -295 -119 -201 -296 -546 -381
-746 -89 -208 -198 -511 -241 -672 -29 -108 -71 -276 -78 -315 -5 -22 -9 -44
-11 -50 -7 -30 -39 -204 -49 -270 -5 -27 -9 -52 -10 -55 0 -3 -5 -34 -9 -70
-4 -36 -10 -74 -12 -85 -2 -11 -6 -49 -9 -85 -4 -36 -8 -72 -10 -80 -2 -8 -7
-53 -10 -100 -3 -47 -8 -104 -10 -126 -30 -344 -26 -1058 10 -1464 9 -101 31
-297 40 -360 2 -14 7 -45 10 -70 3 -25 10 -70 15 -100 5 -30 12 -71 15 -90 3
-19 8 -42 10 -50 3 -8 7 -31 9 -50 3 -19 14 -78 26 -130 13 -52 26 -113 31
-135 5 -22 16 -65 24 -95 19 -65 23 -83 30 -111 20 -92 171 -507 247 -679 14
-30 33 -75 44 -100 80 -189 287 -578 459 -865 l102 -170 667 -3 668 -2 -27 32
c-14 18 -53 69 -87 113 -34 44 -64 82 -68 85 -3 3 -17 21 -30 40 -14 19 -28
40 -33 45 -4 6 -35 48 -68 95 -33 47 -65 92 -72 100 -31 39 -251 381 -270 420
-4 8 -13 24 -20 35 -62 102 -205 381 -252 490 -9 22 -24 56 -32 75 -97 222
-236 696 -277 945 -2 17 -9 55 -15 85 -21 112 -45 271 -57 385 -3 33 -8 67 -9
75 -2 8 -6 62 -10 120 -4 58 -8 107 -10 110 -5 7 -18 425 -18 560 0 160 14
474 27 610 4 36 9 88 11 115 2 28 6 66 9 85 3 19 10 71 16 115 14 101 19 134
25 165 3 14 7 41 10 60 24 148 87 419 130 560 64 210 141 425 194 545 10 22
36 78 57 125 174 386 447 817 741 1172 42 51 79 95 82 98 3 3 17 18 30 33 l24
27 -666 0 -666 0 -64 -97z"/>
<path d="M6070 8005 c0 -3 38 -53 83 -113 461 -593 760 -1105 936 -1602 65
-185 71 -202 76 -220 2 -8 16 -58 31 -110 14 -52 28 -102 30 -110 11 -40 74
-329 79 -360 3 -19 10 -58 15 -86 6 -28 12 -66 15 -85 3 -33 11 -88 20 -139 2
-14 7 -56 11 -95 3 -38 8 -78 10 -88 1 -9 6 -54 9 -100 4 -45 8 -100 11 -122
23 -226 23 -787 -1 -1095 -9 -127 -17 -216 -20 -232 -2 -9 -6 -45 -9 -80 -3
-34 -8 -72 -10 -83 -2 -11 -7 -41 -10 -67 -11 -79 -45 -268 -66 -363 -11 -49
-22 -100 -24 -112 -24 -127 -152 -536 -205 -658 -5 -11 -33 -76 -62 -145 -142
-336 -322 -656 -552 -980 -73 -102 -316 -407 -346 -434 -11 -11 -21 -23 -21
-28 0 -4 298 -7 662 -6 l663 3 33 50 c66 99 190 303 266 434 62 108 297 565
294 574 0 1 7 20 17 42 136 321 244 636 299 875 2 8 13 53 24 100 11 47 23
105 27 130 4 24 8 47 10 50 2 4 7 29 11 56 3 27 8 52 10 55 1 3 6 28 10 55 3
27 8 57 10 67 12 65 41 305 49 412 4 44 8 90 10 102 27 169 27 1127 0 1413 -2
25 -7 77 -10 115 -3 39 -8 86 -10 105 -12 105 -17 147 -20 170 -6 45 -18 135
-20 150 -7 49 -18 118 -36 215 -12 61 -23 121 -25 135 -7 37 -52 229 -64 270
-5 19 -23 82 -39 140 -136 477 -407 1073 -734 1610 -39 63 -79 132 -90 153
l-21 37 -663 0 c-365 0 -663 -2 -663 -5z"/>
<path d="M2719 5082 l-47 -3 38 -87 c21 -48 83 -199 139 -337 56 -137 106
-259 111 -270 5 -11 31 -74 58 -140 27 -66 91 -221 142 -345 51 -124 148 -362
217 -530 69 -168 131 -318 138 -335 20 -49 70 -170 135 -330 33 -82 65 -159
70 -170 37 -80 72 -173 72 -190 0 -11 -24 -72 -55 -135 -30 -63 -84 -178 -120
-255 -36 -77 -84 -180 -107 -230 -23 -49 -53 -115 -67 -145 -25 -54 -95 -204
-155 -330 -17 -36 -46 -98 -64 -138 l-34 -72 386 2 386 3 52 111 c28 60 62
135 75 165 14 30 46 99 71 154 26 55 54 116 63 135 8 19 36 80 62 135 26 55
51 109 55 120 4 11 63 139 130 285 67 146 134 290 147 320 14 30 39 84 55 120
16 36 77 169 135 295 58 127 119 259 135 295 17 36 41 88 53 115 13 28 44 94
69 148 25 55 46 100 46 102 0 2 25 56 55 120 30 65 55 118 55 120 0 2 21 47
46 102 25 54 79 170 119 258 40 88 89 196 110 240 20 44 70 152 110 240 40 88
87 192 105 230 76 165 100 218 100 224 0 5 -486 6 -732 2 -21 -1 -38 -6 -38
-12 0 -6 -14 -41 -31 -77 -29 -62 -105 -227 -159 -347 -12 -27 -42 -92 -66
-144 -24 -51 -44 -95 -44 -97 0 -1 -18 -40 -39 -86 -22 -46 -84 -182 -139
-303 -55 -121 -116 -256 -137 -300 -20 -44 -57 -125 -82 -180 -25 -55 -62
-136 -82 -180 -20 -44 -41 -91 -47 -104 -10 -23 -12 -21 -34 35 -13 32 -31 77
-40 99 -10 22 -39 92 -65 155 -26 63 -53 129 -60 145 -7 17 -33 80 -58 140
-343 827 -501 1211 -510 1238 -4 9 -14 17 -24 18 -64 2 -667 3 -704 1z"/>
</g>
</svg>
