<?xml version="1.0" standalone="no"?>
<!DOCTYPE svg PUBLIC "-//W3C//DTD SVG 20010904//EN"
 "http://www.w3.org/TR/2001/REC-SVG-20010904/DTD/svg10.dtd">
<svg version="1.0" xmlns="http://www.w3.org/2000/svg"
 width="192.000000pt" height="192.000000pt" viewBox="0 0 192.000000 192.000000"
 preserveAspectRatio="xMidYMid meet">
<metadata>
Created by potrace 1.11, written by Peter Selinger 2001-2013
</metadata>
<g transform="translate(0.000000,192.000000) scale(0.100000,-0.100000)"
fill="#000000" stroke="none">
<path d="M848 1915 c-2 -2 -21 -6 -43 -10 -22 -4 -44 -8 -50 -9 -5 -2 -23 -6
-40 -10 -16 -5 -54 -17 -83 -27 -382 -137 -640 -517 -626 -922 2 -45 5 -95 8
-112 3 -16 8 -46 11 -65 13 -75 90 -270 106 -270 5 0 9 -6 9 -13 0 -19 105
-154 159 -205 86 -81 184 -144 306 -198 139 -61 372 -85 522 -54 29 6 54 11
55 10 2 0 36 11 76 24 256 88 457 266 569 507 29 61 62 162 66 197 2 15 6 32
8 37 8 16 13 74 13 165 0 158 -28 282 -95 421 -132 271 -408 479 -700 525 -37
6 -266 13 -271 9z"/>
</g>
</svg>
