<svg xmlns="http://www.w3.org/2000/svg" width="31" height="27" viewBox="0 0 31 27"><path fill="#FFF" fill-rule="evenodd" d="M9.972 15.99c-2.284 1.14-4.463 2.222-7.222 3.025v-5.35c0-.416.206-.806.55-1.04l2.06-1.4c.177-.12.495-.22.708-.22h3.308V9.06H13.1v1.948h2.852c.462 0 .838.376.838.84v1.157c-2.623.896-4.736 1.95-6.818 2.987zm-.596-8.857v1.01H13.1v-1.01c0-.518-.42-.938-.94-.938h-1.846c-.518 0-.938.42-.938.938zM7.214 4.185c.268 0 .523-.055.755-.154.262.365.687.605 1.17.605.16 0 .308-.032.45-.078-.002.026-.008.05-.008.078 0 .496.402.898.898.898s.898-.402.898-.898-.402-.898-.898-.898c.07-.17.11-.356.11-.55 0-.8-.65-1.45-1.45-1.45-.026 0-.05.007-.077.01C8.838.93 8.1.33 7.213.33c-1.063 0-1.926.864-1.926 1.928s.863 1.927 1.927 1.927zm18.86 18.86c-.187.283-.192.648-.004.93l1.11 1.664c.407.606-.066 1.413-.793 1.357l-24.69-1.94c-.672-.052-1.234-.524-1.405-1.176C.142 23.31 0 22.604 0 21.978c0-1.29.518-1.53 1.578-1.783 9.477-2.26 12.084-7.712 27.897-8.604.41-.024.74.335.686.743-.467 3.47-2.123 7.72-4.086 10.71zm-1.207-4.075c0-.23-.188-.42-.42-.42-.23 0-.418.19-.418.42 0 .648-.434 1.19-1.022 1.37v-2.89c.315-.155.533-.477.533-.852 0-.528-.427-.956-.954-.956-.528 0-.956.428-.956.956 0 .377.22.7.54.856v2.887c-.59-.18-1.022-.722-1.022-1.37 0-.23-.187-.42-.42-.42-.23 0-.418.19-.418.42 0 1.257 1.022 2.28 2.278 2.28 1.257 0 2.28-1.023 2.28-2.28z"/></svg>