<svg xmlns="http://www.w3.org/2000/svg" width="512" height="512" viewBox="0 0 485.213 485.212"><g fill="#FFF"><path d="M224.274 240.756c-41.43-8.485-72.646-45.15-72.646-89.127 0-33.303 18.094-62.1 44.778-77.96 8.5 18.316 25.856 37.03 49.753 50.848 31.33 18.078 64.557 22.535 86.118 13.903.653 4.355 1.307 8.68 1.307 13.21 0 43.977-31.162 80.642-72.62 89.126 58.223-8.9 102.942-58.74 102.942-119.452C363.907 54.314 309.597 0 242.607 0c-66.962 0-121.303 54.315-121.303 121.304 0 60.712 44.776 110.55 102.97 119.452zM333.586 272.93h-15.163c0 41.878-33.943 75.817-75.816 75.817-41.875 0-75.812-33.94-75.812-75.817H151.63c-50.228 0-90.98 40.726-90.98 90.976v90.98c0 16.764 13.566 30.326 30.328 30.326h303.258c16.76 0 30.326-13.562 30.326-30.326v-90.98c0-50.25-40.693-90.976-90.976-90.976z"/></g></svg>