<svg width="34" height="53" viewBox="0 0 34 53" xmlns="http://www.w3.org/2000/svg" xmlns:xlink="http://www.w3.org/1999/xlink"><title>female-hair-shape-and-face-silhouette</title><defs><path id="a" d="M34 0H0v53h34V0z"/></defs><g fill="none" fill-rule="evenodd"><mask id="b" fill="#fff"><use xlink:href="#a"/></mask><path d="M9.526 29.043c1.183.18 4.212-7.038 4.43-7.193.217-.163 4.582.188 4.003-2.16-1.315 1.116-1.927-.1-1.87-.98.065-.89 1.176-2.772 1.466-2.643.29.123.796 1.175 1.844.205-1.586.154-1.217-2.203-.724-2.487.5-.278 2.414-1.134 2.97-1.68.558-.548.597-2.268 1.733-1.892 1.135.382.296 2.82.634 3.645.338.814 3.4 3.44 3.35 4.266-.047.83-1.336.684-1.31 1.835 0 .47.803.82.828 1.368.016.547-.87.955-.87.955s.765.212.612 1.035c-.153.816-1.128.57-1.44.743-.146.083 1.496 1.91.273 3.296-1.11 1.32-6.653-.075-7.723.342-2.006.792-3.666 3.53-2.563 4.828 1.106 1.296 4.922 5.48 5.914 8.963 1.707 4.55-2.466 12.51-4.793 6.736-3.3 2.25 3.594 10.504 13.274-1.916 7.41-10.106 3.785-28.506 1.594-32.632C28.976 9.542 18.778-4.73 7.835 1.592-5.775 9.12.7 27.34 9.525 29.042z" fill="#000" mask="url(#b)"/></g></svg>