<svg xmlns="http://www.w3.org/2000/svg" width="512" height="512" viewBox="0 0 31.793 31.794"><g fill="#FFF"><path d="M16.21 8.913c2.38 0 4.31-1.996 4.31-4.454 0-2.464-1.93-4.46-4.31-4.46s-4.313 1.996-4.313 4.46c0 2.457 1.932 4.453 4.314 4.453zM23.855 12.692c-.214-.65-1.436-2.62-4.752-2.64l-6.49.018c-3.22-.18-4.505 1.722-4.706 2.565 0 0-2.174 6.94-1.8 8.55.23.997 1.962 2.218 3.806 3.126l-2.456 7.484h17.318l-2.39-7.745c1.647-.872 3.093-1.96 3.302-2.866.378-1.627-1.832-8.492-1.832-8.492zm-10.548 7.65c-.3.133-.634.21-.983.21-1.354 0-2.45-1.114-2.45-2.487s1.097-2.486 2.45-2.486c1.33 0 2.42 1.075 2.457 2.417.423-.303.855-.445 1.18-.504v.007c.486-.093.864 0 .864 0 1.634.362 5.245 1.964 5.245 1.964s-1.94 2.4-5.46 2.385c-.09 0-.18-.003-.266-.007-.325-.008-.616-.03-.878-.06-1.662-.197-2.138-.817-2.16-1.442z"/></g></svg>