<?xml version="1.0" encoding="UTF-8" standalone="no"?>
<svg width="30px" height="30px" viewBox="0 0 30 30" version="1.1" xmlns="http://www.w3.org/2000/svg" xmlns:xlink="http://www.w3.org/1999/xlink">
    <!-- Generator: sketchtool 45 (43471) - http://www.bohemiancoding.com/sketch -->
    <title>Search icon</title>
    <desc>Created with sketchtool.</desc>
    <defs>
        <path d="M32.5605,30.4395 L24.471,22.35 C26.1045,20.256 27,17.6985 27,15 C27,11.7945 25.7505,8.781 23.484,6.516 C21.219,4.248 18.2055,3 15,3 C11.7945,3 8.781,4.248 6.516,6.516 C4.2495,8.781 3,11.7945 3,15 C3,18.2055 4.2495,21.219 6.516,23.484 C8.781,25.752 11.7945,27 15,27 C17.6985,27 20.256,26.106 22.35,24.471 L30.4395,32.559 L32.5605,30.4395 Z M15,24 C12.5955,24 10.3365,23.064 8.637,21.3645 C6.936,19.665 6,17.4045 6,15 C6,12.597 6.936,10.3365 8.637,8.637 C10.3365,6.936 12.5955,6 15,6 C17.4045,6 19.6635,6.936 21.363,8.637 C23.064,10.3365 24,12.597 24,15 C24,17.4045 23.064,19.665 21.363,21.3645 C19.6635,23.064 17.4045,24 15,24 Z" id="path-1"></path>
    </defs>
    <g id="Header" stroke="none" stroke-width="1" fill="none" fill-rule="evenodd">
        <g id="Navigation---Mockups" transform="translate(-59.000000, -34.000000)">
            <g id="Icon/Search" transform="translate(56.000000, 31.000000)">
                <rect id="Bounding-Box" x="0" y="0" width="36" height="36"></rect>
                <mask id="mask-2" fill="white">
                    <use xlink:href="#path-1"></use>
                </mask>
                <g id="Mask"></g>
                <g id="Mixin/Fill/Black" mask="url(#mask-2)" fill-rule="evenodd" fill="#0C0033">
                    <rect id="Rectangle" x="0" y="0" width="36" height="36"></rect>
                </g>
            </g>
        </g>
    </g>
</svg>