<svg xmlns="http://www.w3.org/2000/svg" width="512" height="512" viewBox="0 0 512 512"><path fill="#FFF" d="M504.485 103.21c4.15 0 7.515-3.365 7.515-7.516V71.648c0-21.823-17.755-39.577-39.577-39.577H191.875c-21.823 0-39.577 17.756-39.577 39.578v34.975C65.904 119.928 0 186.863 0 267.196c0 26.235 7.197 52.308 20.812 75.4 12.104 20.53 29.287 38.785 49.924 53.092l-30.103 73.908c-1.108 2.722-.494 5.928 1.544 8.045 2.335 2.426 6.112 2.997 9.06 1.365l94.453-52.342c12.495 2.337 25.32 3.52 38.17 3.52 66.38 0 124.65-31.345 156.978-78.215l111.22 78.508c2.845 2.007 6.8 1.764 9.38-.572 2.187-1.98 3.016-5.144 2.083-7.944L440.1 351.695h32.324c21.823 0 39.577-17.755 39.577-39.577v-180.02c0-4.15-3.365-7.514-7.516-7.514-4.15 0-7.515 3.364-7.515 7.515v180.018c0 13.536-11.012 24.548-24.55 24.548h-42.75c-5.04 0-8.725 5.102-7.128 9.89l19.48 58.44-93.24-65.817c12.113-21.722 18.935-46.16 18.935-71.985 0-89.87-82.478-162.984-183.86-162.984-5.572 0-11.084.234-16.53.667v-33.23c0-13.536 11.01-24.548 24.547-24.548h280.548c13.536 0 24.548 11.01 24.548 24.547v24.047c0 4.15 3.364 7.515 7.515 7.515zM183.86 415.15c-12.795 0-25.56-1.264-37.938-3.756-1.748-.353-3.566-.07-5.126.794l-78.204 43.338 24.376-59.846c1.364-3.35.148-7.197-2.894-9.154C40.84 358.706 15.03 314.096 15.03 267.196c0-72.13 59.208-132.362 137.267-145.35v190.272c0 21.823 17.755 39.577 39.577 39.577h130.49c-30.538 38.33-81.232 63.457-138.505 63.457zm0-295.91c93.092 0 168.83 66.372 168.83 147.954 0 25.093-7.175 48.743-19.807 69.47H191.875c-13.536 0-24.548-11.01-24.548-24.548V119.95c5.44-.465 10.954-.71 16.532-.71z"/><path fill="#FFF" d="M309.927 200.247c-11.662-10.86-32.742-12.327-55.076 7.145-22.333-19.473-43.414-18.008-55.074-7.145-11.74 10.936-14.4 32.452 3.23 52.414 16.953 19.195 45.537 45.64 46.745 46.757 2.842 2.626 7.357 2.625 10.2 0 1.207-1.116 29.79-27.562 46.744-46.756 17.633-19.96 14.972-41.476 3.233-52.413zm-14.495 42.465c-12.265 13.886-31.484 32.312-40.58 40.893-9.096-8.58-28.31-27-40.58-40.893-11.27-12.76-10.67-25.49-4.25-31.467 2.626-2.446 6.268-3.876 10.66-3.876 7.75 0 17.84 4.45 28.81 15.618 2.902 2.956 7.818 2.956 10.72 0 17.19-17.498 32.21-18.505 39.47-11.743 6.418 5.98 7.02 18.707-4.25 31.467z"/></svg>