<svg xmlns="http://www.w3.org/2000/svg" width="512" height="512" viewBox="0 0 416.768 416.768"><path fill="#FFF" d="M207.64 0c-2.56 0-5.12 2.048-5.12 5.12l-.513 26.112c0 3.072 2.56 5.12 5.12 5.12 3.072 0 5.12-2.048 5.12-5.12l.512-26.112c0-3.072-2.05-5.12-5.12-5.12zM247.575 23.552c-2.048-2.048-5.12-2.048-7.168 0l-18.944 17.92c-2.048 2.048-2.048 5.12 0 7.168 1.024 1.024 2.048 1.536 3.584 1.536 1.024 0 2.56-.512 3.584-1.536l18.945-17.92c2.048-2.048 2.048-5.12 0-7.168zM193.815 41.472l-18.944-17.92c-2.047-2.048-5.12-2.048-7.167 0-2.048 2.048-2.048 5.12 0 7.168l18.944 17.92c1.024 1.024 2.048 1.536 3.584 1.536s2.56-.512 3.585-1.536c2.048-2.048 2.048-5.12 0-7.168zM390.423 392.704c-.512-2.56-3.584-4.608-6.144-3.584l-32.257 7.68-28.16-115.712c28.672-12.8 38.4-70.656 22.016-136.192-5.12-19.968-19.457-68.608-28.16-87.04-1.025-2.048-3.585-3.072-5.633-2.56l-92.16 22.528c-2.56.512-4.096 2.56-4.096 5.12.513 20.48 10.24 70.144 15.36 90.112 15.873 64 50.177 110.08 80.897 110.08h2.048l28.16 115.712-32.256 7.68c-2.56.512-4.61 3.584-3.585 6.144.512 2.56 2.56 4.096 5.12 4.096h1.024l74.24-17.92c2.56-.512 4.607-3.584 3.583-6.144zM226.583 86.016l83.968-20.48c3.585 8.192 7.68 19.968 11.777 32.256l-91.136 21.504c-2.047-12.8-4.095-24.576-4.607-33.28zm14.848 83.968c-2.047-9.216-5.63-24.576-8.703-40.448l92.16-22.016c4.608 15.36 8.704 30.208 10.752 38.912 15.36 62.464 6.655 119.808-18.945 125.952s-60.416-40.448-75.264-102.4z"/><path fill="#FFF" d="M318.23 138.752c-.51-2.56-3.07-4.096-6.143-3.584-2.56.512-4.608 3.584-3.584 6.144 11.264 45.056 9.216 83.456 4.608 94.72-1.023 2.56 0 5.632 2.56 6.656.513.512 1.537.512 2.05.512 2.047 0 4.095-1.024 4.607-3.072 5.632-13.312 7.68-53.248-4.096-101.376zM196.887 77.312l-92.16-22.528c-2.56-.512-4.608.512-5.632 2.56-8.704 18.432-23.04 67.072-28.16 87.04C54.55 210.432 64.79 268.288 92.95 280.576L64.79 396.288l-32.255-7.68c-2.56-.512-5.632 1.024-6.144 3.584-1.023 3.072.513 5.632 3.585 6.656l74.24 17.92h1.024c2.047 0 4.607-1.536 5.12-4.096.51-2.56-1.025-5.632-3.585-6.144l-32.256-7.68 28.16-115.712h2.047c30.72 0 65.024-46.08 80.896-110.592 5.12-19.968 14.848-70.144 15.36-90.112 0-2.56-1.536-4.608-4.096-5.12zm-22.016 93.184c-15.36 61.952-49.663 108.544-75.263 102.4-25.088-6.656-34.304-64-18.944-125.952 2.048-9.216 6.144-24.064 10.752-38.912l92.16 22.016c-3.072 15.872-6.144 31.232-8.704 40.448zm10.753-51.2L94.487 97.792c4.096-12.288 8.192-24.064 11.776-32.256l83.968 20.48c-.51 8.704-2.56 20.48-4.607 33.28z"/><path fill="#FFF" d="M104.727 135.68c-2.56-.512-5.632 1.024-6.144 3.584-11.776 48.128-9.216 88.064-4.096 101.376 1.024 2.048 2.56 3.072 4.608 3.072.512 0 1.536 0 2.048-.512 2.56-1.024 3.584-4.096 2.56-6.656-4.608-11.776-6.656-49.664 4.608-94.72.513-2.56-1.023-5.632-3.583-6.144z"/></svg>